<svg xmlns="http://www.w3.org/2000/svg" width="989.77" height="375.01" viewBox="0 0 989.77 375.01">
	<style type="text/css">
		.st2{fill:#ffffff;}
		.st1{fill:#000000;}
		.st0{fill:#2863e8;}
	</style>
	<path class="st0" d="M384.55,135.23L355.65,135.23L355.65,190L338.34,190L338.34,118.74L384.55,118.74Z"/>
	<path class="st1" d="M432.91,143.37C432.91,137.98 429.96,135.23 424.06,135.23L411.53,135.23L411.53,151.52L424.06,151.52C429.96,151.52 432.91,148.77 432.91,143.37M450.42,143.17C450.42,158.95 439.83,168.01 424.77,168.01L411.53,168.01L411.53,189.99L394.23,189.99L394.23,118.74L424.77,118.74C439.83,118.74 450.42,127.39 450.42,143.17"/>
	<path class="st1" d="M491.24,158.74L483.61,136.55L475.97,158.74ZM496.94,175.23L470.27,175.23L465.18,189.99L446.86,189.99L472.72,118.74L494.5,118.74L520.36,189.99L502.03,189.99Z"/>
	<path class="st1" d="M601.39,118.74L601.39,190L584.09,190L584.09,142.97L566.27,170.15L564.64,170.15L546.83,142.97L546.83,190L529.52,190L529.52,118.74L549.17,118.74L565.46,143.17L581.74,118.74Z"/>
	<path class="st1" d="M630.1,154.37C630.1,166.28 638.45,174.83 649.85,174.83C661.25,174.83 669.6,166.28 669.6,154.37C669.6,142.46 661.25,133.91 649.85,133.91C638.45,133.91 630.1,142.46 630.1,154.37M687.11,154.37C687.11,175.34 670.92,191.32 649.85,191.32C628.78,191.32 612.59,175.34 612.59,154.37C612.59,133.4 628.78,117.41 649.85,117.41C670.92,117.41 687.11,133.4 687.11,154.37"/>
	<path class="st1" d="M749.82,135.23L730.38,135.23L730.38,190L713.07,190L713.07,135.23L693.73,135.23L693.73,118.74L749.82,118.74Z"/>
	<path class="st1" d="M821.49,118.74L821.49,190L804.18,190L804.18,161.9L776.8,161.9L776.8,190L759.49,190L759.49,118.74L776.8,118.74L776.8,145.41L804.18,145.41L804.18,118.74Z"/>
	<path class="st1" d="M898.96 118.74L916.26 118.74L916.26 190L898.96 190ZM873.71,167.09C873.71,162.41 871.17,160.98 866.18,160.98L853.05,160.98L853.05,173.5L865.88,173.5C870.86,173.5 873.71,171.77 873.71,167.09M891.22,167.29C891.22,182.36 881.65,190 866.59,190L835.74,190L835.74,118.74L853.05,118.74L853.05,144.8L866.89,144.8C882.26,144.8 891.22,152.23 891.22,167.29"/>
	<path class="st1" d="M941.21,95.02L941.21,91.87L954.65,91.87L954.65,94.61C954.65,97.06 956.27,98.69 958.62,98.69C960.86,98.69 962.48,97.06 962.48,94.61L962.48,91.87L975.92,91.87L975.92,95.02C975.92,105.61 967.47,111.61 958.62,111.61C949.66,111.61 941.21,105.61 941.21,95.02M989.77,118.74L989.77,190L972.46,190L972.46,160.17L973.89,145.1L947.11,190L927.47,190L927.47,118.74L944.77,118.74L944.77,148.57L943.45,163.63L970.12,118.74Z"/>
	<path class="st0" d="M397.18,288.12L379.87,288.12L379.87,233.35L352.49,233.35L352.49,288.12L335.18,288.12L335.18,216.86L352.49,216.86L397.18,216.86Z"/>
	<path class="st1" d="M425.89,252.49C425.89,264.4 434.23,272.95 445.63,272.95C457.04,272.95 465.38,264.4 465.38,252.49C465.38,240.58 457.04,232.03 445.63,232.03C434.23,232.03 425.89,240.58 425.89,252.49M482.89,252.49C482.89,273.46 466.71,289.44 445.63,289.44C424.56,289.44 408.38,273.46 408.38,252.49C408.38,231.52 424.56,215.54 445.63,215.54C466.71,215.54 482.89,231.52 482.89,252.49"/>
	<path class="st1" d="M515.98,271.63L537.87,271.63L537.87,233.35L522.29,233.35L517.1,266.13C516.8,268.06 516.39,269.9 515.98,271.63M565.35,271.63L565.35,301.86L548.05,301.86L548.05,288.12L504.78,288.12L504.78,301.86L487.48,301.86L487.48,271.63L497.45,271.63C498.68,270.3 499.49,268.06 500.1,264.4L507.63,216.86L555.17,216.86L555.17,271.63Z"/>
	<path class="st1" d="M616.66,288.12L603.63,265.93L591.01,288.12L570.45,288.12L593.25,251.06L571.57,216.86L592.13,216.86L604.14,237.32L616.15,216.86L636.72,216.86L614.63,252.39L637.22,288.12Z"/>
	<path class="st1" d="M656.27,252.49C656.27,264.4 664.61,272.95 676.01,272.95C687.41,272.95 695.76,264.4 695.76,252.49C695.76,240.58 687.41,232.03 676.01,232.03C664.61,232.03 656.27,240.58 656.27,252.49M713.27,252.49C713.27,273.46 697.09,289.44 676.01,289.44C654.94,289.44 638.76,273.46 638.76,252.49C638.76,231.52 654.94,215.54 676.01,215.54C697.09,215.54 713.27,231.52 713.27,252.49"/>
	<path class="st1" d="M746.36,271.63L768.25,271.63L768.25,233.35L752.67,233.35L747.48,266.13C747.17,268.06 746.77,269.9 746.36,271.63M795.73,271.63L795.73,301.86L778.43,301.86L778.43,288.12L735.16,288.12L735.16,301.86L717.86,301.86L717.86,271.63L727.83,271.63C729.06,270.3 729.87,268.06 730.48,264.4L738.01,216.86L785.55,216.86L785.55,271.63Z"/>
	<path class="st1" d="M337.31,325.76C337.31,319.51 342.01,314.92 348.03,314.92C352.73,314.92 356.71,317.76 358,322.27L355.88,322.27C354.78,319.01 351.75,316.82 348.03,316.82C343.11,316.82 339.32,320.61 339.32,325.76C339.32,330.91 343.11,334.7 347.99,334.7C351.75,334.7 354.78,332.47 355.88,329.25L358,329.25C356.71,333.76 352.7,336.6 347.99,336.6C342.01,336.6 337.31,332.01 337.31,325.76"/>
	<path class="st1" d="M365.81,325.76C365.81,330.91 369.64,334.67 374.45,334.67C379.27,334.67 383.09,330.91 383.09,325.76C383.09,320.57 379.23,316.85 374.45,316.85C369.68,316.85 365.81,320.53 365.81,325.76M385.14,325.76C385.14,331.98 380.44,336.6 374.45,336.6C368.5,336.6 363.76,331.98 363.76,325.76C363.76,319.51 368.58,314.92 374.45,314.92C380.37,314.92 385.14,319.51 385.14,325.76"/>
	<path class="st1" d="M421.98,322.46L421.98,336.18L419.98,336.18L419.98,322.77C419.98,318.79 418.12,316.85 414.74,316.85C410.27,316.85 408.11,320.95 408.11,325.65L408.15,336.18L406.1,336.18L406.1,322.77C406.1,318.79 404.21,316.85 400.87,316.85C396.4,316.85 394.24,320.95 394.24,325.65L394.28,336.18L392.23,336.18L392.23,315.34L394.28,315.34L394.28,320.04C395.53,316.97 397.61,314.92 401.33,314.92C404.97,314.92 407.28,316.82 407.92,320.3C409.13,317.12 411.33,314.92 415.2,314.92C419.56,314.92 421.98,317.61 421.98,322.46"/>
	<path class="st1" d="M448.71,325.76C448.71,320.61 445.41,316.85 440.56,316.85C435.75,316.85 432.07,320.61 432.07,325.76C432.07,330.95 435.75,334.67 440.56,334.67C445.37,334.67 448.71,330.91 448.71,325.76M450.72,325.76C450.72,332.01 446.66,336.6 440.86,336.6C436.92,336.6 433.74,334.44 432.11,331.18L432.11,345.66L430.1,345.66L430.1,315.34L432.11,315.34L432.11,320.34C433.74,317.08 436.92,314.92 440.86,314.92C446.66,314.92 450.72,319.51 450.72,325.76"/>
	<path class="st1" d="M458.94,324.51L475.58,324.51C475.09,320.04 471.98,316.82 467.4,316.82C462.77,316.82 459.47,320.04 458.94,324.51M477.71,326.4L458.91,326.4C459.13,331.56 462.7,334.67 467.55,334.67C470.84,334.67 473.65,333.26 475.05,330.54L477.14,330.54C475.43,334.59 471.68,336.6 467.51,336.6C461.37,336.6 456.86,332.28 456.86,325.84C456.86,319.47 461.29,314.92 467.4,314.92C473.8,314.92 477.82,319.66 477.71,326.4"/>
	<path class="st1" d="M499.27,335.39C498.21,335.92 496.09,336.6 493.97,336.6C489.34,336.6 486.65,333.53 486.65,328.26L486.65,317.23L482.48,317.23L482.48,315.34L486.65,315.34L486.65,310.11L488.66,309.65L488.66,315.34L498.86,315.34L498.86,317.23L488.66,317.23L488.66,328.19C488.66,332.28 490.48,334.7 494.27,334.7C495.86,334.7 497.42,334.29 498.89,333.68Z"/>
	<path class="st1" d="M506.02,324.51L522.66,324.51C522.17,320.04 519.06,316.82 514.47,316.82C509.85,316.82 506.55,320.04 506.02,324.51M524.78,326.4L505.98,326.4C506.21,331.56 509.77,334.67 514.63,334.67C517.92,334.67 520.73,333.26 522.13,330.54L524.21,330.54C522.51,334.59 518.76,336.6 514.59,336.6C508.45,336.6 503.94,332.28 503.94,325.84C503.94,319.47 508.37,314.92 514.47,314.92C520.88,314.92 524.9,319.66 524.78,326.4"/>
	<path class="st1" d="M549.12,322.92L549.12,336.18L547.11,336.18L547.11,323.18C547.11,318.98 544.87,316.85 541.2,316.85C536.35,316.85 533.62,320.45 533.62,325.65L533.62,336.18L531.61,336.18L531.61,315.34L533.62,315.34L533.62,320.23C534.94,317.08 537.52,314.92 541.61,314.92C546.31,314.92 549.12,317.8 549.12,322.92"/>
	<path class="st1" d="M571.18,335.39C570.12,335.92 568,336.6 565.87,336.6C561.25,336.6 558.56,333.53 558.56,328.26L558.56,317.23L554.39,317.23L554.39,315.34L558.56,315.34L558.56,310.11L560.57,309.65L560.57,315.34L570.76,315.34L570.76,317.23L560.57,317.23L560.57,328.19C560.57,332.28 562.39,334.7 566.18,334.7C567.77,334.7 569.32,334.29 570.8,333.68Z"/>
	<path class="st1" d="M608.59,325.76C608.59,320.61 604.92,316.85 600.1,316.85C595.29,316.85 591.95,320.61 591.95,325.76C591.95,330.91 595.29,334.67 600.1,334.67C604.92,334.67 608.59,330.95 608.59,325.76M610.56,315.34L610.56,336.18L608.55,336.18L608.55,331.22C606.92,334.44 603.78,336.6 599.84,336.6C594,336.6 589.94,332.01 589.94,325.76C589.94,319.51 594.04,314.92 599.8,314.92C603.78,314.92 606.92,317.08 608.55,320.34L608.55,315.34Z"/>
	<path class="st1" d="M637.48,325.76C637.48,320.61 634.18,316.85 629.33,316.85C624.51,316.85 620.84,320.61 620.84,325.76C620.84,330.95 624.51,334.67 629.33,334.67C634.14,334.67 637.48,330.91 637.48,325.76M639.48,325.76C639.48,332.01 635.43,336.6 629.63,336.6C625.69,336.6 622.5,334.44 620.87,331.18L620.87,345.66L618.87,345.66L618.87,315.34L620.87,315.34L620.87,320.34C622.5,317.08 625.69,314.92 629.63,314.92C635.43,314.92 639.48,319.51 639.48,325.76"/>
	<path class="st1" d="M665.41,325.76C665.41,320.61 662.11,316.85 657.26,316.85C652.45,316.85 648.77,320.61 648.77,325.76C648.77,330.95 652.45,334.67 657.26,334.67C662.08,334.67 665.41,330.91 665.41,325.76M667.42,325.76C667.42,332.01 663.37,336.6 657.57,336.6C653.62,336.6 650.44,334.44 648.81,331.18L648.81,345.66L646.8,345.66L646.8,315.34L648.81,315.34L648.81,320.34C650.44,317.08 653.62,314.92 657.57,314.92C663.37,314.92 667.42,319.51 667.42,325.76"/>
	<path class="st1" d="M685.81,315.03L685.81,317.04C685.46,317 684.97,316.97 684.48,316.97C679.66,316.97 676.56,320.49 676.56,326.06L676.56,336.18L674.55,336.18L674.55,315.34L676.56,315.34L676.56,320.53C677.77,317.27 680.38,314.92 684.44,314.92C684.97,314.92 685.46,314.96 685.81,315.03"/>
	<path class="st1" d="M692.55,325.76C692.55,330.91 696.38,334.67 701.2,334.67C706.01,334.67 709.84,330.91 709.84,325.76C709.84,320.57 705.97,316.85 701.2,316.85C696.42,316.85 692.55,320.53 692.55,325.76M711.88,325.76C711.88,331.98 707.18,336.6 701.2,336.6C695.24,336.6 690.51,331.98 690.51,325.76C690.51,319.51 695.32,314.92 701.2,314.92C707.11,314.92 711.88,319.51 711.88,325.76"/>
	<path class="st1" d="M736.64,325.76C736.64,320.61 732.96,316.85 728.15,316.85C723.33,316.85 720,320.61 720,325.76C720,330.91 723.33,334.67 728.15,334.67C732.96,334.67 736.64,330.95 736.64,325.76M738.61,315.34L738.61,336.18L736.6,336.18L736.6,331.22C734.97,334.44 731.82,336.6 727.88,336.6C722.04,336.6 717.99,332.01 717.99,325.76C717.99,319.51 722.08,314.92 727.84,314.92C731.82,314.92 734.97,317.08 736.6,320.34L736.6,315.34Z"/>
	<path class="st1" d="M745.73,325.76C745.73,319.51 750.43,314.92 756.46,314.92C761.16,314.92 765.14,317.76 766.43,322.27L764.31,322.27C763.21,319.01 760.17,316.82 756.46,316.82C751.53,316.82 747.74,320.61 747.74,325.76C747.74,330.91 751.53,334.7 756.42,334.7C760.17,334.7 763.21,332.47 764.31,329.25L766.43,329.25C765.14,333.76 761.12,336.6 756.42,336.6C750.43,336.6 745.73,332.01 745.73,325.76"/>
	<path class="st1" d="M790.92,322.92L790.92,336.18L788.91,336.18L788.91,323.18C788.91,318.98 786.67,316.85 782.92,316.85C778.07,316.85 775.38,320.45 775.38,325.65L775.38,336.18L773.37,336.18L773.37,307L775.38,307L775.38,320.15C776.74,316.97 779.36,314.92 783.37,314.92C788.11,314.92 790.92,317.8 790.92,322.92"/>
	<path class="st0" d="M65.22,315.58L102.28,161.87L97.62,161.87L97.62,171.27L60.46,171.27L60.46,128.9L97.62,128.9L97.62,137.72L108.11,137.72L115.22,108.28C108.63,99.81 105.06,89.44 105.06,78.61C105.06,63.19 112.38,49.09 124.1,40.09C111.11,43.16 93.72,47.42 71.61,53.12C18.58,66.79 0,72.25 0,72.25C0,72.25 25.91,110.78 15.3,215.49C10.28,265.05 31.01,295 64.25,320.28Z"/>
	<path class="st0" d="M194.57,305.41L165.12,180.33L142.11,180.33L112.66,305.41L89.88,337.7C109.3,349.78 131.11,361.57 153.62,375.01C176.12,361.57 197.93,349.78 217.35,337.7Z"/>
	<path class="st0" d="M307.24,72.25C307.24,72.25 288.65,66.79 235.62,53.12C213.51,47.42 196.12,43.16 183.13,40.09C194.85,49.09 202.18,63.19 202.18,78.61C202.18,89.44 198.6,99.81 192.01,108.28L199.12,137.72L209.41,137.72L209.41,128.9L246.58,128.9L246.58,171.27L209.41,171.27L209.41,161.87L204.95,161.87L242.01,315.58L242.98,320.28C276.22,295 296.95,265.05 291.93,215.49C281.33,110.78 307.24,72.25 307.24,72.25"/>
	<path class="st2" d="M153.62,54.21C153.62,54.21 175.6,58.64 223.32,70.94C268.4,82.56 284.19,87.2 284.19,87.2C284.19,87.2 262.17,119.95 271.18,208.95C278.62,282.37 219.6,305.14 153.62,344.55C87.63,305.14 28.61,282.37 36.05,208.95C45.06,119.95 23.04,87.2 23.04,87.2C23.04,87.2 38.84,82.56 83.91,70.94C131.63,58.64 153.62,54.21 153.62,54.21"/>
	<path class="st0" d="M73.68,281.2L102.28,162.59L97.62,162.59L97.62,171.99L60.46,171.99L60.46,129.62L97.62,129.62L97.62,138.44L108.11,138.44L115.22,109C109.08,101.1 105.55,91.55 105.11,81.5C100.59,82.64 95.75,83.87 90.57,85.2C49.8,95.71 35.51,99.91 35.51,99.91C35.51,99.91 55.43,129.54 47.27,210.04C44.02,242.2 54.86,263.62 73.68,281.2"/>
	<path class="st0" d="M271.73,99.91C271.73,99.91 257.44,95.71 216.66,85.2C211.48,83.87 206.64,82.64 202.12,81.5C201.68,91.55 198.16,101.1 192.01,109L199.12,138.44L209.41,138.44L209.41,129.62L246.58,129.62L246.58,171.99L209.41,171.99L209.41,162.59L204.95,162.59L233.55,281.2C252.37,263.62 263.21,242.2 259.96,210.04C251.81,129.54 271.73,99.91 271.73,99.91"/>
	<path class="st0" d="M194.57,306.13L165.12,181.05L142.11,181.05L112.66,306.13L111.29,308.07C124.47,315.97 138.85,323.87 153.62,332.69C168.38,323.87 182.76,315.97 195.95,308.07Z"/>
	<path class="st1" d="M175.97,80.77L153.62,80.96L131.27,80.77L126.81,99.25C122.62,93.61 120.19,86.71 120.19,79.33C120.19,60.89 135.18,45.88 153.62,45.87C172.06,45.88 187.04,60.89 187.04,79.33C187.04,86.71 184.62,93.61 180.42,99.25ZM158.84,147.45L158.84,134.33L147.39,134.33L147.39,147.45L140.78,147.45L153.62,92.94L166.45,147.45ZM233.23,318.27L193.53,153.59L218.41,153.59L218.41,162.99L237.58,162.99L237.58,138.62L218.41,138.62L218.41,147.45L192.04,147.45L182.18,106.63C189.11,99.41 193.18,89.78 193.18,79.33C193.18,61.04 180.69,45.64 163.81,41.12L163.81,0L153.65,0L153.58,0L143.42,0L143.42,41.12C126.54,45.64 114.06,61.04 114.06,79.33C114.06,89.78 118.12,99.41 125.05,106.63L115.19,147.45L88.62,147.45L88.62,138.62L69.46,138.62L69.46,162.99L88.62,162.99L88.62,153.59L113.71,153.59L74.01,318.27C71.56,330.15 69.11,342.03 66.67,353.91C71.88,347.11 77.1,340.32 82.32,333.53C89.65,323.14 96.97,312.75 104.3,302.37L139.33,153.59L147.39,153.59L147.39,172.05L158.84,172.05L158.84,153.59L167.9,153.59L202.93,302.37C210.26,312.75 217.59,323.14 224.91,333.53C230.13,340.32 235.35,347.11 240.57,353.91C238.12,342.03 235.67,330.15 233.23,318.27"/>
</svg>